# xmcd CD database file
#
# Track frame offsets:
#	150
#	16164
#	40969
#	60528
#	80943
#	101660
#	112962
#	124431
#	140486
#	159278
#	179012
#	202172
#	220081
#	238321
#	255078
#	275883
#
# Disc length: 3888 seconds
#
# Revision: 0
# Processed by: cddbd v1.4PL0 Copyright (c) Steve Scherf et al.
# Submitted via: CDex 1.51
#
DISCID=f00f2e10
DTITLE=Lone Star - The Power Of Live
DYEAR=1900
DGENRE=Country
TTITLE0=High Rollin'
TTITLE1=Dixieland Delight
TTITLE2=Mountain Music
TTITLE3=Gamblin' On Love
TTITLE4=Native American
TTITLE5=Sold
TTITLE6=Lousiana Saturday Night
TTITLE7=The Gambler
TTITLE8=Tequila Sunrise
TTITLE9=Trick Rider
TTITLE10=Lyin' Eyes
TTITLE11=Mercury Blues
TTITLE12=Stand By Me
TTITLE13=Thank God For The Radio
TTITLE14=Achy Bracky Heart
TTITLE15=Amazing Grace
EXTD=
EXTT0=
EXTT1=
EXTT2=
EXTT3=
EXTT4=
EXTT5=
EXTT6=
EXTT7=
EXTT8=
EXTT9=
EXTT10=
EXTT11=
EXTT12=
EXTT13=
EXTT14=
EXTT15=
PLAYORDER=
